<svg xmlns="http://www.w3.org/2000/svg" style="display: none;">


  <symbol id="prev" viewBox="0 0 36 36">
    <path d="M20.9999 27L23.1099 24.89L16.2399 18L23.1099 11.11L20.9999 9L11.9999 18L20.9999 27Z" fill="currentColor" />
  </symbol>

  <symbol id="next" viewBox="0 0 36 36">
    <path d="M14.9999 9L12.8899 11.11L19.7599 18L12.8899 24.89L14.9999 27L23.9999 18L14.9999 9Z" fill="currentColor" />
  </symbol>

  <symbol id="closeModal" viewBox="0 0 32 32">
    <path fill-rule="evenodd" clip-rule="evenodd" d="M19.9799 12.4252L19.182 11.6273L15.9899 14.8193L12.7982 11.6276L12.0002 12.4256L15.1919 15.6173L12.0003 18.8089L12.7983 19.6069L15.9899 16.4152L19.1819 19.6072L19.9798 18.8092L16.7879 15.6173L19.9799 12.4252Z" fill="currentColor"/>
  </symbol>

  <symbol id="urlIcon" viewBox="0 0 18 18">
    <path fill-rule="evenodd" clip-rule="evenodd" d="M10.3149 1.82831C11.877 0.266214 14.4097 0.266214 15.9718 1.82831C17.5339 3.39041 17.5339 5.92307 15.9718 7.48517L12.0827 11.3743C10.7158 12.7411 8.49976 12.7411 7.13292 11.3743L8.54714 9.96004C9.13292 10.5458 10.0827 10.5458 10.6685 9.96004L14.5575 6.07095C15.3386 5.2899 15.3386 4.02357 14.5575 3.24252C13.7765 2.46148 12.5102 2.46148 11.7291 3.24253L10.6522 4.31942L10.0824 4.07524C9.49595 3.82388 8.8493 3.76787 8.23599 3.90722L10.3149 1.82831ZM7.48663 15.9705C5.92453 17.5326 3.39187 17.5326 1.82978 15.9705C0.267678 14.4084 0.267679 11.8758 1.82978 10.3137L5.71886 6.42459C7.0857 5.05775 9.30177 5.05775 10.6686 6.42459L9.2544 7.8388C8.66861 7.25301 7.71886 7.25301 7.13308 7.8388L3.24399 11.7279C2.46294 12.5089 2.46294 13.7753 3.24399 14.5563C4.02504 15.3374 5.29137 15.3374 6.07242 14.5563L7.14932 13.4794L7.71909 13.7236C8.30559 13.975 8.95224 14.031 9.56554 13.8916L7.48663 15.9705Z" fill="currentColor"/>
  </symbol>

</svg>
